<?xml version="1.0" standalone="no"?>
<!DOCTYPE svg PUBLIC "-//W3C//DTD SVG 20010904//EN"
 "http://www.w3.org/TR/2001/REC-SVG-20010904/DTD/svg10.dtd">
<svg version="1.0" xmlns="http://www.w3.org/2000/svg"
 width="1024.000000pt" height="1024.000000pt" viewBox="0 0 1024.000000 1024.000000"
 preserveAspectRatio="xMidYMid meet">
<metadata>
Created by potrace 1.11, written by Peter Selinger 2001-2013
</metadata>
<g transform="translate(0.000000,1024.000000) scale(0.100000,-0.100000)"
fill="#000000" stroke="none">
<path d="M0 5120 l0 -5120 1135 0 1134 0 5 33 c3 17 10 82 16 142 41 399 173
842 347 1165 445 826 1204 1318 2163 1401 189 16 545 6 725 -21 709 -107 1318
-461 1730 -1006 312 -412 516 -937 580 -1489 9 -77 18 -159 21 -182 l5 -43
1190 0 1189 0 0 5120 0 5120 -5120 0 -5120 0 0 -5120z m5695 4529 c694 -59
1266 -300 1671 -704 325 -324 514 -711 591 -1215 25 -165 25 -579 0 -740 -65
-421 -228 -785 -505 -1130 -107 -133 -339 -368 -597 -604 -500 -456 -661 -639
-790 -896 -96 -192 -125 -322 -132 -597 l-6 -213 -794 0 -795 0 5 302 c5 327
15 417 66 613 106 404 311 736 686 1110 60 61 218 210 350 331 272 250 442
422 535 539 245 309 350 604 337 945 -18 434 -254 726 -674 832 -76 20 -113
23 -278 22 -173 0 -199 -3 -287 -27 -272 -73 -449 -212 -563 -441 -88 -176
-125 -359 -125 -608 l0 -128 -797 0 -796 0 6 173 c32 890 403 1606 1052 2030
110 71 355 193 489 242 207 76 532 145 776 164 153 12 437 12 575 0z"/>
<path d="M4885 1509 c-232 -32 -467 -128 -653 -268 -99 -75 -242 -224 -310
-323 -159 -233 -246 -522 -240 -796 l3 -117 1380 0 1380 0 -1 155 c0 227 -44
408 -143 603 -191 376 -538 639 -959 727 -113 24 -351 34 -457 19z"/>
</g>
</svg>
