<?xml version="1.0" standalone="no"?>
<!DOCTYPE svg PUBLIC "-//W3C//DTD SVG 20010904//EN"
 "http://www.w3.org/TR/2001/REC-SVG-20010904/DTD/svg10.dtd">
<svg version="1.0" xmlns="http://www.w3.org/2000/svg"
 width="291.000000pt" height="291.000000pt" viewBox="0 0 291.000000 291.000000"
 preserveAspectRatio="xMidYMid meet">
<metadata>
Created by potrace 1.11, written by Peter Selinger 2001-2013
</metadata>
<g transform="translate(0.000000,291.000000) scale(0.100000,-0.100000)"
fill="#000000" stroke="none">
<path d="M1309 2876 c-2 -2 -26 -7 -54 -10 -352 -46 -698 -246 -924 -536 -143
-182 -240 -404 -281 -645 -16 -95 -19 -148 -16 -264 5 -162 7 -177 36 -300 29
-124 67 -220 146 -371 107 -207 364 -450 599 -568 75 -37 228 -96 278 -106 12
-3 58 -12 102 -22 122 -25 363 -27 498 -3 131 23 286 73 398 129 330 166 585
455 707 800 26 74 43 140 68 265 12 61 11 331 -1 410 -21 130 -24 145 -60 252
-169 505 -612 878 -1140 959 -44 7 -351 15 -356 10z"/>
</g>
</svg>
